<svg id="visual" viewBox="0 0 960 540" width="960" height="540" xmlns="http://www.w3.org/2000/svg" xmlns:xlink="http://www.w3.org/1999/xlink" version="1.1"><rect x="0" y="0" width="960" height="540" fill="#202731"></rect><path d="M0 171L22.8 162.5C45.7 154 91.3 137 137 125.8C182.7 114.7 228.3 109.3 274 117.2C319.7 125 365.3 146 411.2 148.8C457 151.7 503 136.3 548.8 128.8C594.7 121.3 640.3 121.7 686 128C731.7 134.3 777.3 146.7 823 149C868.7 151.3 914.3 143.7 937.2 139.8L960 136L960 0L937.2 0C914.3 0 868.7 0 823 0C777.3 0 731.7 0 686 0C640.3 0 594.7 0 548.8 0C503 0 457 0 411.2 0C365.3 0 319.7 0 274 0C228.3 0 182.7 0 137 0C91.3 0 45.7 0 22.8 0L0 0Z" fill="#ff6f61"></path><path d="M0 93L22.8 93.2C45.7 93.3 91.3 93.7 137 94.8C182.7 96 228.3 98 274 100.7C319.7 103.3 365.3 106.7 411.2 104.8C457 103 503 96 548.8 98C594.7 100 640.3 111 686 109.3C731.7 107.7 777.3 93.3 823 90.2C868.7 87 914.3 95 937.2 99L960 103L960 0L937.2 0C914.3 0 868.7 0 823 0C777.3 0 731.7 0 686 0C640.3 0 594.7 0 548.8 0C503 0 457 0 411.2 0C365.3 0 319.7 0 274 0C228.3 0 182.7 0 137 0C91.3 0 45.7 0 22.8 0L0 0Z" fill="#ee5849"></path><path d="M0 40L22.8 45C45.7 50 91.3 60 137 64.7C182.7 69.3 228.3 68.7 274 63.2C319.7 57.7 365.3 47.3 411.2 48.3C457 49.3 503 61.7 548.8 65.5C594.7 69.3 640.3 64.7 686 61.3C731.7 58 777.3 56 823 51.5C868.7 47 914.3 40 937.2 36.5L960 33L960 0L937.2 0C914.3 0 868.7 0 823 0C777.3 0 731.7 0 686 0C640.3 0 594.7 0 548.8 0C503 0 457 0 411.2 0C365.3 0 319.7 0 274 0C228.3 0 182.7 0 137 0C91.3 0 45.7 0 22.8 0L0 0Z" fill="#dd3f31"></path></svg>